<svg width="534" height="534" viewBox="0 0 534 534" fill="none" xmlns="http://www.w3.org/2000/svg">
<rect x="11.5" y="11.5" width="511" height="511" rx="159.5" fill="#1F2328" stroke="black"/>
<path d="M337.295 337.295C302.304 372.286 262.212 393.611 226.83 400.888C191.162 408.224 164.154 400.893 148.176 384.915C132.199 368.938 124.868 341.929 132.203 306.262C139.48 270.879 160.805 230.786 195.796 195.795C230.787 160.805 270.879 139.48 306.261 132.204C341.929 124.868 368.938 132.199 384.915 148.176C400.893 164.154 408.223 191.162 400.888 226.83C393.611 262.213 372.286 302.304 337.295 337.295Z" stroke="white" stroke-width="60"/>
<rect x="266.392" y="296.091" width="232" height="42" transform="rotate(-135 266.392 296.091)" fill="#1F2328"/>
<path d="M146 197.5C146 169.057 169.057 146 197.5 146C225.943 146 249 169.057 249 197.5C249 225.943 225.943 249 197.5 249C169.057 249 146 225.943 146 197.5Z" fill="#1F2328"/>
<circle cx="198" cy="197" r="34" transform="rotate(-180 198 197)" fill="white"/>
</svg>
